<svg id="svg-source" height="0" version="1.1" 
  xmlns="http://www.w3.org/2000/svg" style="position:absolute; margin-left: -100%" 
  xmlns:xlink="http://www.w3.org/1999/xlink">
  <g id="twitter" data-iconmelon="Flat Social Icons Multicolor:7bea12547295ed9029c6fcbbd9244435">
    <g>
      <path fill="#28AAE2" d="M16,32c8.837,0,16-7.163,16-16c0-8.836-7.163-16-16-16C7.164,0,0,7.164,0,16C0,24.837,7.164,32,16,32"></path>
      <path fill="#FFFFFF" d="M24.014,11.809c-0.59,0.261-1.224,0.438-1.889,0.518c0.68-0.407,1.202-1.051,1.446-1.818
		c-0.636,0.376-1.339,0.65-2.09,0.797c-0.598-0.639-1.453-1.038-2.399-1.038c-1.815,0-3.287,1.473-3.287,3.288
		c0,0.258,0.027,0.508,0.085,0.749c-2.732-0.137-5.155-1.445-6.778-3.436c-0.283,0.487-0.444,1.052-0.444,1.655
		c0,1.14,0.58,2.146,1.462,2.737c-0.538-0.017-1.045-0.166-1.49-0.411v0.041c0,1.594,1.134,2.922,2.639,3.224
		c-0.275,0.077-0.565,0.116-0.866,0.116c-0.212,0-0.418-0.02-0.618-0.059c0.418,1.306,1.632,2.257,3.071,2.282
		c-1.126,0.883-2.544,1.408-4.084,1.408c-0.265,0-0.527-0.015-0.784-0.045c1.455,0.932,3.184,1.477,5.04,1.477
		c6.05,0,9.355-5.009,9.355-9.355c0-0.143-0.003-0.285-0.009-0.425C23.016,13.047,23.575,12.468,24.014,11.809"></path>
    </g>
  </g>
  <g id="paypal" data-iconmelon="Flat Social Icons Multicolor:e73404e39e1955614167e7a16d158128">
    <g>
      <path fill="#0E447E" d="M16,32c8.837,0,16-7.164,16-16S24.837,0,16,0C7.162,0,0,7.164,0,16S7.162,32,16,32"></path>
      <path fill="#FFFFFF" d="M23.995,11.936c-0.037-0.672-0.215-1.25-0.491-1.74c-0.801-1.426-2.437-2.098-3.926-2.098h-8.022
		L8.001,23.902h4.709l1.15-5.23h3.368c0.037,0,0.077-0.006,0.118-0.006c1.911-0.031,3.629-0.742,4.847-2.011
		c0.793-0.833,1.379-1.897,1.664-3.175C23.976,12.92,24.018,12.403,23.995,11.936z M19.436,13.48
		c-0.128,0.522-0.426,0.998-0.82,1.374c-0.142,0.133-0.301,0.253-0.467,0.357c-0.426,0.267-0.916,0.431-1.407,0.431h-2.208
		l0.935-4.008l0.077-0.317h2.305c0.398,0,0.746,0.119,1.026,0.317C19.399,12.014,19.656,12.692,19.436,13.48z"></path>
    </g>
  </g>
  <g id="google-plus" data-iconmelon="Flat Social Icons Multicolor:a6e5a23dc8d87c11847618ef0ba8a85e">
    <g>
      <path fill="#C31718" d="M16,32c8.836,0,16-7.164,16-16S24.837,0,16,0S0,7.164,0,16S7.164,32,16,32"></path>
      <path fill="#FFFFFF" d="M13.354,23.165c-1.903,0-3.276-1.203-3.276-2.648c0-1.418,1.705-2.599,3.606-2.577
		c0.443,0.004,0.857,0.076,1.233,0.197c1.032,0.719,1.772,1.124,1.981,1.942c0.04,0.166,0.061,0.336,0.061,0.511
		C16.959,22.036,16.027,23.165,13.354,23.165 M13.853,14.685c-1.276-0.038-2.49-1.428-2.71-3.104
		c-0.221-1.678,0.636-2.96,1.912-2.922s2.49,1.383,2.71,3.06C15.985,13.395,15.129,14.723,13.853,14.685 M16.5,17.168
		c-0.448-0.317-1.304-1.088-1.304-1.541c0-0.533,0.151-0.794,0.951-1.418c0.819-0.641,1.4-1.541,1.4-2.588
		c0-1.246-0.556-2.461-1.598-2.862h1.571l1.109-0.801h-4.956c-2.221,0-4.312,1.683-4.312,3.632c0,1.992,1.514,3.6,3.774,3.6
		c0.157,0,0.31-0.003,0.459-0.013c-0.146,0.279-0.252,0.598-0.252,0.925c0,0.554,0.298,1.003,0.675,1.369
		c-0.285,0-0.56,0.008-0.859,0.008c-2.751,0-4.87,1.753-4.87,3.57c0,1.79,2.322,2.909,5.073,2.909c3.137,0,4.87-1.78,4.87-3.57
		C18.233,18.953,17.81,18.093,16.5,17.168 M23.709,14.831H21.78v-1.929h-1.552v1.929h-1.929v1.553h1.929v1.93h1.552v-1.93h1.929
		V14.831z"></path>
    </g>
  </g>
  <g id="dribbble" data-iconmelon="Flat Social Icons Multicolor:05c9d6d82f0dd178692f2d73b4293da1">
    <g>
      <path fill="#E94190" d="M16,32c8.837,0,16-7.164,16-16c0-8.836-7.163-16-16-16C7.162,0,0,7.164,0,16C0,24.836,7.162,32,16,32"></path>
      <path fill-rule="evenodd" clip-rule="evenodd" fill="#FFFFFF" d="M23.836,14.39c-0.104-0.514-0.262-1.021-0.466-1.504
		c-0.2-0.475-0.448-0.932-0.737-1.359c-0.286-0.423-0.615-0.822-0.977-1.183c-0.361-0.362-0.76-0.691-1.184-0.977
		c-0.427-0.29-0.885-0.538-1.358-0.738c-0.483-0.204-0.99-0.362-1.504-0.466C17.084,8.055,16.542,8,16,8s-1.084,0.055-1.611,0.164
		c-0.515,0.104-1.02,0.262-1.503,0.466c-0.474,0.201-0.932,0.448-1.36,0.738c-0.423,0.286-0.82,0.614-1.183,0.977
		c-0.362,0.361-0.69,0.76-0.976,1.183c-0.289,0.427-0.539,0.884-0.738,1.359c-0.204,0.483-0.361,0.99-0.467,1.504
		C8.055,14.915,8,15.458,8,16c0,0.543,0.055,1.085,0.162,1.612c0.105,0.514,0.263,1.021,0.467,1.503
		c0.199,0.474,0.449,0.933,0.738,1.36c0.285,0.423,0.613,0.821,0.976,1.183c0.362,0.361,0.76,0.689,1.183,0.976
		c0.429,0.289,0.887,0.538,1.36,0.738c0.483,0.205,0.988,0.361,1.503,0.466C14.916,23.946,15.458,24,16,24s1.084-0.055,1.61-0.164
		c0.514-0.105,1.021-0.261,1.504-0.466c0.474-0.2,0.932-0.449,1.358-0.738c0.424-0.286,0.822-0.614,1.184-0.976
		c0.361-0.362,0.69-0.76,0.977-1.183c0.289-0.427,0.537-0.886,0.737-1.36c0.204-0.482,0.361-0.989,0.466-1.503
		C23.945,17.085,24,16.542,24,16C24,15.458,23.945,14.915,23.836,14.39z M22.83,15.932c-0.1-0.021-2.411-0.519-4.76-0.224
		c-0.047-0.117-0.096-0.234-0.146-0.353c-0.143-0.334-0.296-0.666-0.454-0.991c2.697-1.102,3.792-2.686,3.806-2.704
		C22.234,12.824,22.812,14.311,22.83,15.932z M20.513,10.873c-0.018,0.026-0.99,1.508-3.57,2.474
		c-1.167-2.146-2.45-3.851-2.553-3.986c0.517-0.125,1.056-0.193,1.61-0.193C17.729,9.167,19.309,9.812,20.513,10.873z M14.363,9.366
		c0,0.001-0.001,0.001-0.001,0.001s-0.009,0.001-0.021,0.004C14.348,9.37,14.355,9.369,14.363,9.366z M13.084,9.821
		c0.092,0.122,1.355,1.834,2.537,3.937c-3.279,0.872-6.127,0.837-6.308,0.834C9.758,12.476,11.179,10.721,13.084,9.821z M9.168,16
		c0-0.073,0.002-0.144,0.005-0.215c0.12,0.002,3.497,0.079,7.015-0.974c0.195,0.383,0.383,0.772,0.554,1.161
		c-0.091,0.025-0.179,0.052-0.269,0.082c-3.688,1.192-5.557,4.509-5.557,4.509s0.002,0.002,0.002,0.003
		C9.83,19.355,9.168,17.755,9.168,16z M16,22.833c-1.653,0-3.17-0.588-4.353-1.566c0.09,0.073,0.153,0.119,0.153,0.119
		s1.309-2.856,5.361-4.268c0.016-0.006,0.03-0.01,0.045-0.015c0.962,2.498,1.359,4.59,1.46,5.188
		C17.848,22.64,16.946,22.833,16,22.833z M19.817,21.667c-0.069-0.413-0.434-2.417-1.329-4.88c2.204-0.353,4.115,0.252,4.257,0.299
		C22.441,18.988,21.352,20.631,19.817,21.667z"></path>
    </g>
  </g>
</svg>