<?xml version="1.0" encoding="UTF-8"?>
<svg width="512px" height="512px" viewBox="0 0 512 512" version="1.1" xmlns="http://www.w3.org/2000/svg" xmlns:xlink="http://www.w3.org/1999/xlink">
    <!-- Generator: Sketch 48.2 (47327) - http://www.bohemiancoding.com/sketch -->
    <title>favicon</title>
    <desc>Created with Sketch.</desc>
    <defs></defs>
    <g id="Page-1" stroke="none" stroke-width="1" fill="none" fill-rule="evenodd">
        <g id="favicon" fill="#000000">
            <path d="M290,384 L189,384 L189,366 L213,363 L216,358 L193,294 L111,294 L88,358 L92,363 L116,366 L116,384 L35,384 L35,366 L58,362 L143,128 L182,128 L269,362 L290.676471,365.941176 L313,364 L319,358 L319,157 L313,151 L289,149 L289,131 L478,131 L478,194 L452,194 L446,158 L442,153 L369,153 L369,247 L419,247 L425,242 L428,214 L451,214 L451,302 L428,302 L425,275 L419,270 L369,270 L369,358 L375,364 L402,366 L402,384 L291,384 L290,384 Z M151,180 L118,273 L184,273 L151,180 Z" id="AF"></path>
        </g>
    </g>
</svg>