<?xml version="1.0" encoding="UTF-8"?>
<svg width="245px" height="245px" viewBox="0 0 245 245" version="1.1" xmlns="http://www.w3.org/2000/svg" xmlns:xlink="http://www.w3.org/1999/xlink">
    <!-- Generator: Sketch 48.2 (47327) - http://www.bohemiancoding.com/sketch -->
    <title>link-icon</title>
    <desc>Created with Sketch.</desc>
    <defs></defs>
    <g id="Page-1" stroke="none" stroke-width="1" fill="none" fill-rule="evenodd">
        <g id="link-icon" fill="#000000">
            <g id="Group" transform="translate(122.946483, 122.946483) rotate(45.000000) translate(-122.946483, -122.946483) translate(72.446483, -23.053517)">
                <polygon id="Combined-Shape" points="70.9355783 134.968056 70.9355783 112.563795 81.5887872 106.425544 81.5887872 40.2386341 50.4888527 22.3192255 19.3889182 40.2386341 19.3889182 106.425544 30.1169143 112.606887 30.1169143 135.011147 -0.0111472883 117.65172 -0.0111472883 29.1086406 50.4888527 0.0111472883 100.988853 29.1086406 100.988853 117.65172"></polygon>
                <polygon id="Combined-Shape" transform="translate(50.488853, 224.488853) scale(1, -1) translate(-50.488853, -224.488853) " points="70.9355783 291.945761 70.9355783 269.541501 81.5887872 263.40325 81.5887872 197.216339 50.4888527 179.296931 19.3889182 197.216339 19.3889182 263.40325 30.1169143 269.584592 30.1169143 291.988853 -0.0111472883 274.629426 -0.0111472883 186.086346 50.4888527 156.988853 100.988853 186.086346 100.988853 274.629426"></polygon>
                <rect id="Rectangle" x="38.1787156" y="99" width="24" height="94"></rect>
            </g>
        </g>
    </g>
</svg>