<?xml version="1.0" standalone="no"?>
<!DOCTYPE svg PUBLIC "-//W3C//DTD SVG 20010904//EN"
 "http://www.w3.org/TR/2001/REC-SVG-20010904/DTD/svg10.dtd">
<svg version="1.0" xmlns="http://www.w3.org/2000/svg"
 width="700.000000pt" height="700.000000pt" viewBox="0 0 700.000000 700.000000"
 preserveAspectRatio="xMidYMid meet">
<metadata>
Created by potrace 1.11, written by Peter Selinger 2001-2013
</metadata>
<g transform="translate(0.000000,700.000000) scale(0.100000,-0.100000)"
fill="#000000" stroke="none">
<path d="M1743 4667 c-116 -320 -340 -937 -498 -1372 -158 -434 -320 -882
-362 -995 -41 -113 -78 -215 -80 -227 -4 -18 -16 -23 -72 -33 -265 -45 -251
-41 -252 -69 -1 -35 -1 -160 0 -193 l1 -28 554 0 554 0 -2 120 c-1 65 -4 121
-7 124 -3 3 -33 8 -66 11 -34 4 -70 8 -80 10 -10 1 -51 6 -92 10 -67 7 -77 11
-107 43 l-33 35 20 56 c11 31 24 65 29 76 5 11 24 65 44 120 19 55 49 141 67
190 18 50 60 167 94 260 l60 170 563 3 c445 2 563 0 567 -10 7 -21 244 -685
277 -777 30 -83 30 -83 12 -117 -20 -36 -27 -40 -109 -48 -129 -14 -230 -28
-235 -33 -3 -2 -5 -58 -5 -124 l-1 -119 1457 0 1456 0 -1 119 c-1 66 -3 122
-6 125 -3 3 -55 8 -115 12 -61 4 -119 8 -130 9 -11 1 -40 3 -65 4 -38 1 -52 7
-90 43 l-45 42 0 601 0 600 341 3 341 2 42 -37 c42 -39 45 -46 56 -158 7 -70
17 -156 20 -174 2 -9 4 -28 4 -44 l1 -28 158 3 157 3 0 600 0 600 -155 -1
-154 0 -7 -35 c-4 -19 -10 -70 -13 -114 -4 -44 -8 -91 -11 -105 -2 -14 -7 -47
-10 -75 -4 -42 -12 -56 -44 -86 l-40 -36 -340 1 c-233 0 -341 3 -344 10 -1 6
-3 295 -2 641 l0 630 500 2 c544 2 499 6 540 -52 12 -17 30 -106 50 -240 14
-99 43 -256 47 -260 4 -4 290 -9 343 -6 7 1 10 145 9 424 -1 232 -2 425 -3
430 0 4 -581 7 -1291 7 l-1290 0 0 -125 0 -125 33 -1 c33 -1 53 -3 194 -14 46
-4 86 -6 89 -5 3 1 26 -17 50 -41 l44 -43 0 -1376 0 -1376 -42 -41 c-41 -39
-47 -41 -123 -48 -186 -16 -266 -13 -397 13 -71 14 -128 30 -128 36 0 9 -120
338 -155 426 -8 19 -74 195 -146 390 -72 195 -144 389 -160 430 -15 41 -57
154 -93 250 -35 96 -114 308 -174 470 -113 303 -161 433 -277 745 -37 99 -83
223 -102 275 -62 166 -73 195 -73 197 0 2 -120 3 -267 3 l-268 0 -212 -583z
m347 -199 c12 -35 35 -99 50 -143 16 -44 77 -215 135 -380 59 -165 136 -382
172 -483 36 -101 63 -186 60 -188 -4 -4 -771 -8 -880 -5 -10 1 -15 5 -12 11 6
10 18 42 209 585 65 182 125 353 136 380 10 28 38 103 61 168 23 64 43 117 44
117 1 0 12 -28 25 -62z"/>
</g>
</svg>
