<?xml version="1.0" encoding="UTF-8"?>
<svg width="26px" height="26px" viewBox="0 0 26 26" version="1.1" xmlns="http://www.w3.org/2000/svg" xmlns:xlink="http://www.w3.org/1999/xlink">
    <title>pattern_triangle</title>
    <g id="pattern_triangle" stroke="none" stroke-width="1" fill="none" fill-rule="evenodd">
        <path d="M13.7739573,7.94594781 L20.6637145,16.3667622 C21.0134421,16.794207 20.9504398,17.4242297 20.522995,17.7739573 C20.3443329,17.9201354 20.1205996,18 19.8897572,18 L6.11024276,18 C5.55795801,18 5.11024276,17.5522847 5.11024276,17 C5.11024276,16.7691576 5.19010736,16.5454243 5.33628546,16.3667622 L12.2260427,7.94594781 C12.5757703,7.518503 13.205793,7.45550073 13.6332378,7.8052283 C13.6847066,7.84733914 13.7318465,7.89447901 13.7739573,7.94594781 Z" id="Triangle" fill="#000000"></path>
        <path d="M26.7739573,7.94594781 L33.6637145,16.3667622 C34.0134421,16.794207 33.9504398,17.4242297 33.522995,17.7739573 C33.3443329,17.9201354 33.1205996,18 32.8897572,18 L19.1102428,18 C18.557958,18 18.1102428,17.5522847 18.1102428,17 C18.1102428,16.7691576 18.1901074,16.5454243 18.3362855,16.3667622 L25.2260427,7.94594781 C25.5757703,7.518503 26.205793,7.45550073 26.6332378,7.8052283 C26.6847066,7.84733914 26.7318465,7.89447901 26.7739573,7.94594781 Z" id="Triangle-Copy" fill="#000000" transform="translate(26.000000, 12.500000) scale(1, -1) translate(-26.000000, -12.500000) "></path>
        <path d="M0.773957299,7.94594781 L7.66371454,16.3667622 C8.01344211,16.794207 7.95043984,17.4242297 7.52299503,17.7739573 C7.3443329,17.9201354 7.1205996,18 6.88975724,18 L-6.88975724,18 C-7.44204199,18 -7.88975724,17.5522847 -7.88975724,17 C-7.88975724,16.7691576 -7.80989264,16.5454243 -7.66371454,16.3667622 L-0.773957299,7.94594781 C-0.424229725,7.518503 0.205792977,7.45550073 0.63323779,7.8052283 C0.684706592,7.84733914 0.731846462,7.89447901 0.773957299,7.94594781 Z" id="Triangle-Copy-2" fill="#000000" transform="translate(0.000000, 12.500000) scale(1, -1) translate(-0.000000, -12.500000) "></path>
    </g>
</svg>