<?xml version="1.0" encoding="UTF-8"?>
<svg width="300px" height="300px" viewBox="0 0 300 300" version="1.1" xmlns="http://www.w3.org/2000/svg" xmlns:xlink="http://www.w3.org/1999/xlink">
    <!-- Generator: Sketch 48.2 (47327) - http://www.bohemiancoding.com/sketch -->
    <title>poly_3</title>
    <desc>Created with Sketch.</desc>
    <defs></defs>
    <g id="Page-1" stroke="none" stroke-width="1" fill="none" fill-rule="evenodd">
        <g id="poly_3" stroke="#000000">
            <g id="Group" transform="translate(8.000000, 14.000000)">
                <polygon id="Polygon-5" stroke-width="4.8924998" points="142 54 191 70 221 111 221 162 191 203 142 219 93 203 63 162 63 111 93 70"></polygon>
                <polygon id="Star-2" stroke-width="5" stroke-linecap="round" stroke-linejoin="round" points="143 222 67 242 62 163 19 97 93 69 143 7 193 69 267 97 224 163 219 242"></polygon>
                <polygon id="Star-2" stroke-width="5" stroke-linecap="round" stroke-linejoin="round" transform="translate(142.500000, 149.500000) scale(1, -1) translate(-142.500000, -149.500000) " points="143 246.834716 66.5879172 267.362599 62.4984625 188.346925 19.3626529 122.018181 93.2473137 93.711692 143 32.1903899 192.752686 93.711692 266.637347 122.018181 223.501537 188.346925 219.412083 267.362599"></polygon>
                <path d="M31.5382537,138 L14.5151416,161 C4.83838053,150.120731 1.42108547e-14,142.120731 1.42108547e-14,137 C1.42108547e-14,131.879269 4.83838053,124.545936 14.5151416,115 L31.5382537,138 Z M53.034044,72.1451113 L25.7429962,80.7465679 C24.3090059,66.257197 25.0969559,56.9411323 28.1068461,52.7983739 C31.1167362,48.6556155 39.3414935,45.5667529 52.7811178,43.5317862 L53.034044,72.1451113 Z M108.620156,32.1020526 L81.4854254,23.0195017 C88.8419415,10.4544761 94.9552518,3.38076678 99.8253564,1.79837388 C104.695461,0.21598097 113.165017,2.55142968 125.234025,8.80472 L108.620156,32.1020526 Z M176.8743,32.1020526 L160.260431,8.80472 C173.597514,2.96345234 182.701108,0.834014959 187.571213,2.41640786 C192.441317,3.99880077 197.92059,10.8664987 204.009031,23.0195017 L176.8743,32.1020526 Z M232.519061,72.1451113 L232.771987,43.5317862 C246.995325,46.6454422 255.611939,50.2736495 258.621829,54.4164079 C261.631719,58.5591663 262.027813,67.3358863 259.810109,80.7465679 L232.519061,72.1451113 Z M253,138 L270.023112,115 C279.699873,125.879269 284.538254,133.879269 284.538254,139 C284.538254,144.120731 279.699873,151.454064 270.023112,161 L253,138 Z M232.519061,202.607391 L259.810109,194.005934 C261.244099,208.495305 260.456149,217.81137 257.446259,221.954128 C254.436369,226.096887 246.211611,229.185749 232.771987,231.220716 L232.519061,202.607391 Z M176.8743,243.107391 L204.009031,252.189942 C196.652515,264.754967 190.539204,271.828677 185.6691,273.41107 C180.798995,274.993462 172.329439,272.658014 160.260431,266.404723 L176.8743,243.107391 Z M108.620156,243.107391 L125.234025,266.404723 C111.896942,272.245991 102.793348,274.375428 97.9232434,272.793036 C93.0531388,271.210643 87.5738661,264.342945 81.4854254,252.189942 L108.620156,243.107391 Z M53.034044,202.607391 L52.7811178,231.220716 C38.5577798,228.10706 29.9411657,224.478853 26.9312756,220.336094 C23.9213854,216.193336 23.5252923,207.416616 25.7429962,194.005934 L53.034044,202.607391 Z" id="Triangle" stroke-width="5" stroke-linecap="round" stroke-linejoin="round"></path>
            </g>
        </g>
    </g>
</svg>